<?xml version="1.0" standalone="no"?>
<!DOCTYPE svg PUBLIC "-//W3C//DTD SVG 20010904//EN"
 "http://www.w3.org/TR/2001/REC-SVG-20010904/DTD/svg10.dtd">
<svg version="1.0" xmlns="http://www.w3.org/2000/svg"
 width="16.000000pt" height="16.000000pt" viewBox="0 0 16.000000 16.000000"
 preserveAspectRatio="xMidYMid meet">
<metadata>
Created by potrace 1.11, written by Peter Selinger 2001-2013
</metadata>
<g transform="translate(0.000000,16.000000) scale(0.006250,-0.006250)"
fill="#000000" stroke="none">
<path d="M1248 2340 c-21 -17 -22 -25 -23 -185 -1 -142 2 -171 16 -188 21 -27
55 -29 76 -5 25 28 27 341 2 371 -21 27 -44 29 -71 7z"/>
<path d="M536 2051 c-24 -9 -36 -39 -26 -66 7 -19 211 -227 239 -244 35 -22
86 21 72 62 -6 18 -166 184 -222 231 -33 28 -34 28 -63 17z"/>
<path d="M1859 1934 c-79 -79 -126 -132 -124 -142 2 -10 4 -20 4 -24 2 -19 35
-38 55 -32 11 3 75 60 142 126 99 98 121 124 118 145 -3 31 -13 42 -44 48 -20
4 -46 -18 -151 -121z"/>
<path d="M1189 1785 c-108 -21 -192 -65 -268 -142 -65 -65 -123 -160 -137
-223 -3 -14 -8 -36 -11 -50 -3 -14 -5 -54 -5 -90 0 -36 2 -76 5 -90 3 -14 8
-36 11 -49 32 -146 210 -324 357 -357 110 -24 164 -24 279 0 65 14 158 72 226
141 103 104 149 221 147 372 -2 129 -54 246 -153 346 -81 80 -167 126 -270
143 -65 10 -120 10 -181 -1z m201 -115 c271 -75 383 -404 215 -632 -117 -159
-338 -208 -520 -116 -66 34 -149 129 -180 206 -125 311 162 632 485 542z"/>
<path d="M224 1318 c-26 -21 -25 -54 4 -78 15 -13 50 -16 187 -15 163 0 168 1
186 24 24 29 24 33 0 62 -18 22 -24 23 -186 24 -148 1 -170 -1 -191 -17z"/>
<path d="M1967 1319 c-27 -21 -29 -54 -5 -76 28 -25 341 -27 371 -2 27 21 29
54 5 76 -28 25 -341 27 -371 2z"/>
<path d="M755 820 c-11 -4 -73 -62 -138 -128 -102 -104 -118 -124 -112 -144 9
-29 14 -34 43 -43 20 -6 40 10 148 117 68 67 126 133 128 144 3 13 -4 31 -15
43 -22 23 -25 24 -54 11z"/>
<path d="M1751 808 c-29 -26 -21 -51 38 -112 70 -73 181 -180 196 -189 14 -8
64 7 66 20 0 5 2 17 4 27 3 13 -18 42 -63 89 -182 190 -201 203 -241 165z"/>
<path d="M1249 601 c-23 -18 -24 -23 -24 -189 0 -148 3 -173 18 -189 20 -23
51 -23 75 0 14 15 17 41 17 188 0 167 -1 172 -24 190 -29 24 -33 24 -62 0z"/>
</g>
</svg>
